<svg id="Capa_1" enable-background="new 0 0 511.949 511.949" height="512" viewBox="0 0 511.949 511.949" width="512" xmlns="http://www.w3.org/2000/svg"><g><path d="m511.949 188.745-60.975-44.953v-111.875h-90v45.524l-105-77.41-255.974 188.714 17.802 24.147 13.173-9.711v308.737h450v-308.737l13.173 9.711zm-120.974-126.828h30v59.758l-30-22.117zm60 420h-390v-300.853l195-143.76 195 143.76z"/><path d="m210.975 316.917c0-24.813-20.187-45-45-45h-45v-60h-30v240h30v-30h270v30h30v-120h-212.58c1.665-4.694 2.58-9.741 2.58-15zm-45-15c8.271 0 15 6.729 15 15s-6.729 15-15 15h-45v-30zm225 90h-270v-30h270z"/><path d="m180.975 241.917h150v-120h-150zm30-90h90v60h-90z"/></g></svg>