<svg id="Icons" height="512" viewBox="0 0 74 74" width="512" xmlns="http://www.w3.org/2000/svg"><path d="m38.5 69.38h-2.97a1 1 0 0 1 0-2h2.97a1 1 0 0 1 0 2z"/><path d="m18.62 69.38h-6.67a1 1 0 0 1 -1-1v-28.31a1 1 0 0 1 2 0v27.31h5.67a1 1 0 1 1 0 2z"/><path d="m28.53 69.38h-2.91a1 1 0 0 1 0-2h2.91a1 1 0 0 1 0 2z"/><path d="m62.05 69.38h-16.55a1 1 0 0 1 0-2h15.55v-27.31a1 1 0 0 1 2 0v28.31a1 1 0 0 1 -1 1z"/><path d="m66.82 43.994a5.159 5.159 0 0 1 -3.531-1.4l-26.289-24.586-26.289 24.592a5.17 5.17 0 0 1 -7.311-.253 5.17 5.17 0 0 1 .24-7.31l8.236-7.7a1 1 0 0 1 1.367 1.461l-8.238 7.702a3.176 3.176 0 0 0 4.34 4.639l26.971-25.231a1 1 0 0 1 1.368 0l26.97 25.228a3.256 3.256 0 0 0 4.483-.151 3.17 3.17 0 0 0 -.137-4.485l-29.835-27.9a3.18 3.18 0 0 0 -4.33 0l-10.968 10.256a1 1 0 1 1 -1.367-1.456l10.97-10.259a5.186 5.186 0 0 1 7.06 0l29.831 27.9a5.181 5.181 0 0 1 -3.541 8.957z"/><path d="m12.558 29.062a1 1 0 0 1 -1-1v-22.444a1 1 0 0 1 1-1h10.627a1 1 0 0 1 1 1v12.508a1 1 0 0 1 -2 0v-11.508h-8.627v21.444a1 1 0 0 1 -1 1z"/><path d="m36 61a1 1 0 0 1 -.935-.644 51.476 51.476 0 0 0 -5.724-10.232 15.645 15.645 0 0 1 -2.313-4.843l-.1-.386a9.658 9.658 0 0 1 .571-6.556 9.435 9.435 0 0 1 17 0 9.671 9.671 0 0 1 .572 6.551l-.1.383a15.672 15.672 0 0 1 -2.313 4.846 52.438 52.438 0 0 0 -5.719 10.232 1 1 0 0 1 -.939.649zm0-26a7.411 7.411 0 0 0 -6.7 4.214 7.651 7.651 0 0 0 -.431 5.192l.091.347a13.652 13.652 0 0 0 2.02 4.221 59.629 59.629 0 0 1 5.02 8.479 59.164 59.164 0 0 1 5.019-8.48 13.662 13.662 0 0 0 2.02-4.223l.091-.348a7.658 7.658 0 0 0 -.431-5.188 7.407 7.407 0 0 0 -6.699-4.214z"/><path d="m36 47.905a5.331 5.331 0 1 1 5.331-5.331 5.338 5.338 0 0 1 -5.331 5.331zm0-8.662a3.331 3.331 0 1 0 3.331 3.331 3.334 3.334 0 0 0 -3.331-3.331z"/></svg>