<svg id="Layer_3" enable-background="new 0 0 64 64" height="512" viewBox="0 0 64 64" width="512" xmlns="http://www.w3.org/2000/svg"><g><circle cx="54" cy="10" fill="#3d98f7" r="8"/><path d="m25 20h-2c-1.657 0-3-1.343-3-3 0-1.657 1.343-3 3-3h2" fill="#db9b7c"/><path d="m39 14h2c1.657 0 3 1.343 3 3 0 1.657-1.343 3-3 3h-2" fill="#db9b7c"/><path d="m47 40v-4c0-5.523-4.477-10-10-10h-10c-5.523 0-10 4.477-10 10v4z" fill="#2b74ca"/><path d="m27 36 5-5 5 5 1.961-9.805c-.634-.126-1.29-.195-1.961-.195h-10c-.671 0-1.327.069-1.961.195z" fill="#3d98f7"/><path d="m40 7v11c0 4.418-3.582 8-8 8-4.418 0-8-3.582-8-8v-11" fill="#efbe9a"/><path d="m34 7v1c0 3.314-2.686 6-6 6h-6v-5c0-3.866 3.134-7 7-7h6c3.866 0 7 3.134 7 7v5h-5c-1.657 0-3-1.343-3-3z" fill="#976947"/><path d="m28 26 4 5 4-5" fill="#efbe9a"/><path d="m59 9h-4v-4h-2v4h-4v2h4v4h2v-4h4z" fill="#fff"/><path d="m10 42h-2c-1.657 0-3-1.343-3-3 0-1.657 1.343-3 3-3h2" fill="#db9b7c"/><path d="m24 36h2c1.657 0 3 1.343 3 3 0 1.657-1.343 3-3 3h-2" fill="#db9b7c"/><path d="m32 62v-4c0-5.523-4.477-10-10-10h-10c-5.523 0-10 4.477-10 10v4z" fill="#2b74ca"/><path d="m12 58 5-5 5 5 1.961-9.805c-.634-.126-1.29-.195-1.961-.195h-10c-.671 0-1.327.069-1.961.195z" fill="#3d98f7"/><path d="m25 29v11c0 4.418-3.582 8-8 8-4.418 0-8-3.582-8-8v-11" fill="#efbe9a"/><path d="m19 29v1c0 3.314-2.686 6-6 6h-6v-5c0-3.866 3.134-7 7-7h6c3.866 0 7 3.134 7 7v5h-5c-1.657 0-3-1.343-3-3z" fill="#976947"/><path d="m13 48 4 5 4-5" fill="#efbe9a"/><path d="m40 42h-2c-1.657 0-3-1.343-3-3 0-1.657 1.343-3 3-3h2" fill="#db9b7c"/><path d="m54 36h2c1.657 0 3 1.343 3 3 0 1.657-1.343 3-3 3h-2" fill="#db9b7c"/><path d="m62 62v-4c0-5.523-4.477-10-10-10h-10c-5.523 0-10 4.477-10 10v4z" fill="#2b74ca"/><path d="m42 58 5-5 5 5 1.961-9.805c-.634-.126-1.29-.195-1.961-.195h-10c-.671 0-1.327.069-1.961.195z" fill="#3d98f7"/><path d="m55 29v11c0 4.418-3.582 8-8 8-4.418 0-8-3.582-8-8v-11" fill="#efbe9a"/><path d="m49 29v1c0 3.314-2.686 6-6 6h-6v-5c0-3.866 3.134-7 7-7h6c3.866 0 7 3.134 7 7v5h-5c-1.657 0-3-1.343-3-3z" fill="#976947"/><path d="m43 48 4 5 4-5" fill="#efbe9a"/></g></svg>