<svg id="Capa_1" enable-background="new 0 0 512 512" height="512" viewBox="0 0 512 512" width="512" xmlns="http://www.w3.org/2000/svg"><g><g><path clip-rule="evenodd" d="m255.963 499.998c114.742 0 208.327-93.646 208.327-208.462 0-114.787-93.585-208.433-208.327-208.433-114.713 0-208.298 93.646-208.298 208.433 0 114.816 93.586 208.462 208.298 208.462z" fill="#99e6fc" fill-rule="evenodd"/></g><g><path clip-rule="evenodd" d="m246.001 225.677c15.488 50.819 92.784 27.902 85.14-23.232-14.4-58.096 47.294-41.452 6.298-102.784-25.021-10.657-52.561-16.558-81.476-16.558-9.333 0-18.522.63-27.54 1.805l-129.256 69.44c-29.487 33.688-48.267 76.973-51.13 124.555 62.323 30.967 84.625-14.753 97.736-53.226 18.18-53.34 87.317-42.282 100.228 0z" fill="#68ca44" fill-rule="evenodd"/></g><g><path clip-rule="evenodd" d="m250.524 499.912c5.439-31.798-6.47-73.45-47.551-75.713-33.638-1.862-33.151-2.034-50.271-39.934-16.204-35.923-71.857-31.912-84.854-3.094 32.751 68.724 102.002 116.679 182.676 118.741z" fill="#68ca44" fill-rule="evenodd"/></g><g><path clip-rule="evenodd" d="m237.527 112.38c36.186 11.401 68.45 31.655 94.244 58.21 9.304-22.774 36.444-24.865 5.668-70.929-25.021-10.657-52.561-16.558-81.476-16.558-9.333 0-18.522.63-27.54 1.805 5.697 7.305 9.104 16.501 9.104 26.498z" fill="#4fc122" fill-rule="evenodd"/></g><g><path clip-rule="evenodd" d="m331.771 170.59c39.564 40.736 63.927 96.31 63.927 157.585 0 1.375 0 2.75-.029 4.154l18.408 3.094 7.071-13.779c7.558-14.209 16.776-22.745 25.994-26.871 5.21-2.32 11.308-4.526 17.12-5.615-.945-85.167-52.962-158.072-126.823-189.498 30.775 46.065 3.636 48.156-5.668 70.93z" fill="#2ed1e2" fill-rule="evenodd"/></g><g><path clip-rule="evenodd" d="m405.217 439.082 26.052-30.079 33.953-39.217 10.134-11.688c10.363-12.347 14.829-24.092 15.202-34.176.487-12.089-1.088-27.558-9.247-33.001-8.13-5.557-23.017-1.232-34.067 3.724-9.218 4.096-18.436 12.633-25.994 26.842l-7.071 13.779-23.704 46.178-18.265 35.608-17.32 33.803c-8.331 19.165 10.678 32.972 25.307 17.102z" fill="#e0d2ce" fill-rule="evenodd"/></g><g><path clip-rule="evenodd" d="m390.373 381.601 23.704-46.178-66.618-11.23c-11.623-2.206-21.242 4.011-24.62 8.995l-6.556 9.74c-4.981 7.362-1.861 11.573 6.27 14.409l33.409 12.003z" fill="#9d9696" fill-rule="evenodd"/></g><g><path clip-rule="evenodd" d="m501.249 453.791c3.378-4.984 5.525-16.243-.859-26.183l-35.27-57.666-33.953 39.217 24.219 27.386 23.59 26.527c5.64 6.503 10.736 7.821 15.688.458z" fill="#9d9696" fill-rule="evenodd"/></g><g><path clip-rule="evenodd" d="m354.788 451.012 17.32-33.803-36.243-8.021c-9.046-1.919-16.604 3.122-19.238 7.018l-3.607 5.357c-3.865 5.758-1.431 9.052 4.924 11.258z" fill="#9d9696" fill-rule="evenodd"/></g><g><path clip-rule="evenodd" d="m426.587 490.545c2.634-3.896 4.495-12.805-.687-20.454l-20.784-30.853-25.021 28.876 30.603 27.415c4.409 5.07 8.388 6.102 12.281.372z" fill="#9d9696" fill-rule="evenodd"/></g><g><path clip-rule="evenodd" d="m469.329 288.528c2.662 7.047 3.235 16.329 2.92 24.206-.172 4.555-1.174 9.453-3.178 14.581-2.433 6.245-6.355 12.805-12.024 19.566l-10.134 11.688-6.499 7.534-27.483 31.712-26.023 30.05-25.021 28.905c-2.891 3.122-5.955 5.099-8.932 6.102.744 4.899 3.521 8.737 7.3 10.685 5.497 2.865 13.112 1.833 19.839-5.443l25.021-28.876 26.052-30.079 33.953-39.217 10.134-11.688c10.363-12.347 14.829-24.092 15.202-34.176.487-12.089-1.088-27.558-9.247-33.001-3.149-2.148-7.328-2.806-11.88-2.549z" fill="#b8acac" fill-rule="evenodd"/></g><g><path clip-rule="evenodd" d="m208.269 152.113c17.005-5.701 29.258-21.772 29.258-40.707 0-9.998-3.407-19.193-9.104-26.498-7.873-10.026-20.097-16.472-33.81-16.472-3.12 0-6.155.344-9.075.974-2.977-32.199-30.06-57.408-63.011-57.408-20.584 0-38.848 9.797-50.414 25.009-1.947-.372-3.979-.544-6.069-.544-18.322 0-33.209 14.868-33.209 33.202 0 .859.029 1.69.086 2.492-14.972 6.702-25.421 21.742-25.421 39.245 0 18.935 12.253 35.006 29.258 40.707 3.521 1.432 7.357 2.234 11.365 2.234h51.044 97.765c4.008 0 7.844-.802 11.337-2.234z" fill="#e0d2ce" fill-rule="evenodd"/></g><g><path clip-rule="evenodd" d="m208.269 152.113c17.005-5.701 29.258-21.772 29.258-40.707 0-9.998-3.407-19.193-9.104-26.498-7.873-10.026-20.097-16.472-33.81-16.472-3.12 0-6.155.344-9.075.974-2.977-32.199-30.06-57.408-63.011-57.408-13.455 0-25.908 4.182-36.157 11.344 32.178 11.573 55.224 42.54 55.224 78.95 0 19.68-6.728 37.756-17.978 52.051h73.317c4.007 0 7.843-.802 11.336-2.234z" fill="#b8acac" fill-rule="evenodd"/></g><path d="m506.748 423.628-32.363-52.913 6.539-7.55c.025-.03.051-.059.076-.089 10.621-12.655 16.483-26.045 16.951-38.714.523-13.839-1.233-31.917-12.572-39.5-4.013-2.737-8.81-3.844-13.894-3.887-1.756-36.083-12.516-71.191-31.341-102.006-2.159-3.536-6.776-4.65-10.31-2.491s-4.649 6.775-2.49 10.31c17.789 29.121 27.838 62.365 29.23 96.5-4.412 1.271-8.691 2.93-12.53 4.642-11.591 5.203-21.807 15.643-29.546 30.191-.017.033-.034.066-.051.099l-4.562 8.894-61.135-10.304c-13.905-2.609-26.676 4.14-32.126 12.178l-6.593 9.754c-3.49 5.188-4.492 10.126-2.976 14.678 2.432 7.304 10.405 10.085 12.96 10.975l33.427 12.01 26.342 9.386-11.718 22.843-30.67-6.782c-11.549-2.457-22.316 3.248-26.992 10.165l-3.6 5.345c-3.047 4.505-3.904 8.854-2.55 12.927 2.025 6.089 8.161 8.542 10.749 9.459l30.752 15.183c-1.021 5.542-.38 10.926 1.733 15.479-27.308 14.008-57.682 21.58-88.549 22.038 1.293-17.609-1.992-39.33-14.792-55.395-9.866-12.383-23.972-19.418-40.792-20.344-15.553-.861-22.607-1.379-26.837-4.647-4.703-3.635-8.762-12.641-16.13-28.99l-.853-1.892c-8.416-18.656-27.612-30.242-50.104-30.242-.009 0-.019 0-.028 0-15.997.007-30.408 5.658-39.932 15.087-9.224-23.048-14.309-48.185-14.309-74.491 0-.416.011-.83.014-1.246 10.769 4.233 20.825 6.352 30.139 6.352 16.69 0 31.002-6.79 42.785-20.355 2.717-3.127 2.384-7.864-.743-10.58s-7.863-2.384-10.581.744c-9.554 10.999-26.163 23.454-60.868 7.87 3.548-41.327 19.803-80.639 46.711-112.474h94.282c4.79 0 9.489-.908 13.969-2.698 20.44-6.955 34.154-26.111 34.154-47.743 0-7.182-1.516-14.014-4.229-20.205 5.057-.383 10.126-.598 15.166-.598 26.544 0 52.491 5.275 76.494 15.178 8.306 12.783 12.148 22.424 11.715 29.414-.359 5.815-3.844 10.054-8.255 15.42-8.195 9.971-19.407 23.611-12.175 53.269 3.127 22.147-13.119 37.771-30.877 41.781-14.224 3.213-33.165-.667-39.719-22.174-7.27-23.862-31.074-40.838-57.886-41.283-.372-.006-.739-.009-1.109-.009-26.004 0-46.706 15.28-55.507 41.066-2.256 6.641-4.273 11.996-6.351 16.852-1.628 3.809.14 8.216 3.948 9.845 3.807 1.628 8.215-.139 9.845-3.947 2.23-5.217 4.379-10.913 6.757-17.914 9.68-28.355 32.758-31.041 42.169-30.894 20.385.338 38.389 12.945 43.787 30.657 7.325 24.038 26.314 33.812 45.102 33.811 4.142 0 8.276-.476 12.27-1.377 24.599-5.556 47.048-27.592 42.359-58.961-.035-.234-.081-.466-.139-.695-5.601-22.599 1.547-31.294 9.114-40.501 9.742-11.852 16.207-22.674 8.011-43.069 19.273 11.014 36.806 25.249 51.738 42.352 1.482 1.699 3.561 2.567 5.652 2.567 1.75 0 3.508-.609 4.93-1.85 3.12-2.724 3.441-7.462.717-10.582-21.522-24.652-48.065-43.778-77.424-56.404-.507-.289-1.04-.522-1.594-.685-26.174-11.007-54.542-16.866-83.571-16.866-8.149 0-16.375.474-24.509 1.402-9.208-9.877-22.312-16.069-36.84-16.069-.924 0-1.851.026-2.778.078-2.977-14.514-10.452-27.765-21.511-37.91-13.077-11.996-30.062-18.602-47.826-18.602-20.833 0-40.13 8.896-53.597 24.559-.94-.063-1.895-.095-2.857-.095-21.75 0-39.57 17.142-40.656 38.623-15.571 8.926-25.388 25.623-25.388 43.818 0 21.628 13.711 40.782 34.144 47.74 4.454 1.792 9.146 2.701 13.95 2.701h35.354c-25.306 33.68-40.209 74.047-42.85 116.15-.04.33-.06.66-.056.989-.242 4.169-.378 8.352-.378 12.55 0 57.687 22.444 111.919 63.197 152.706 40.758 40.791 94.951 63.256 152.6 63.256 36.088 0 71.671-9.07 103.178-26.259 2.228.809 4.667 1.266 7.225 1.266 4.371 0 9.077-1.324 13.621-4.419l25.366 22.724c1.745 1.979 6.027 6.473 12.053 6.473.245 0 .494-.007.745-.023 4.282-.262 7.989-2.673 11.021-7.169l3.601-5.346c4.688-6.935 5.966-19.076-.653-28.846l-17.586-26.086 16.677-19.253 18.544 20.97 23.528 26.457c1.755 2.023 6.969 8.037 14.26 8.036.262 0 .527-.008.795-.024 4.806-.288 9.024-3.069 12.541-8.267l6.597-9.758c5.41-8.049 6.89-22.42-.726-34.346zm-467.145-278.454c-.152-.063-.306-.12-.462-.172-14.439-4.841-24.141-18.342-24.141-33.596 0-13.975 8.237-26.693 20.986-32.401 2.878-1.288 4.643-4.238 4.416-7.382-.044-.616-.066-1.274-.066-1.956 0-14.172 11.533-25.701 25.709-25.701 1.646 0 3.221.14 4.68.415 2.791.526 5.641-.569 7.36-2.831 10.653-14.012 26.842-22.048 44.415-22.048 28.997 0 52.875 21.753 55.543 50.598.197 2.134 1.298 4.082 3.024 5.352s3.914 1.74 6.01 1.292c2.511-.536 5.047-.808 7.538-.808 19.526 0 35.413 15.912 35.413 35.47 0 15.254-9.702 28.755-24.141 33.596-.149.05-.297.104-.442.164-2.743 1.116-5.616 1.682-8.539 1.682h-148.812c-2.925-.001-5.782-.564-8.491-1.674zm318.894 217.108-33.474-12.026c-1.871-.652-2.903-1.223-3.437-1.583.156-.353.424-.864.882-1.544l6.578-9.732c1.706-2.516 8.344-7.477 16.982-5.836.052.01.103.019.154.028l56.519 9.527-16.01 31.212zm-38.123 63.454c-.341-.119-.639-.231-.896-.336l3.363-4.993c.997-1.474 5.557-5.135 11.377-3.895l26.773 5.921-9.534 18.586-30.222-14.921c-.279-.139-.567-.26-.861-.362zm-244.04-44.462c5.942-9.276 18.723-15.328 33.079-15.334h.022c16.764 0 30.382 8.003 36.429 21.409l.851 1.888c8.633 19.155 12.967 28.769 20.633 34.695 8.097 6.257 17.717 6.79 35.183 7.757 12.605.694 22.66 5.644 29.886 14.714 10.331 12.966 12.771 31.077 11.515 45.726-73.397-4.365-136.301-48.36-167.598-110.855zm286.904 85.37c-2.722-1.775-4.279-6.3-1.688-12.439l17.057-33.253c.085-.148.159-.303.235-.458l18.076-35.238c.025-.044.046-.091.069-.135l30.778-60.002c6.155-11.556 13.907-19.683 22.403-23.497 5.451-2.431 10.559-4.111 14.911-4.983.321-.036.632-.099.939-.174 4.934-.876 8.803-.654 10.92.797.029.021.06.041.09.061 4.11 2.732 6.438 13.123 5.933 26.479-.343 9.296-4.981 19.526-13.414 29.586l-9.943 11.479c-.093.101-.182.205-.269.311l-33.592 38.781c-.215.223-.419.452-.602.695l-23.915 27.609c-.199.109-.397.225-.589.355-1.344.906-2.295 2.173-2.823 3.584l-23.305 26.905c-3.898 4.18-8.213 5.534-11.271 3.537zm56.453 7.654c3.359 4.959 1.655 10.566.646 12.058l-3.337 4.955c-.192-.199-.406-.432-.643-.703-.204-.235-.423-.457-.655-.665l-25.109-22.493 13.767-15.893zm75.345-24.708-6.584 9.738c-.467.69-.845 1.135-1.116 1.415-.535-.366-1.458-1.125-2.784-2.654l-23.576-26.512-19.859-22.456 22.962-26.508 29.914 48.908c.029.047.058.094.088.14 4.754 7.404 2.638 15.425.955 17.929z"/></g></svg>