<svg id="_x31_" enable-background="new 0 0 24 24" height="512" viewBox="0 0 24 24" width="512" xmlns="http://www.w3.org/2000/svg"><g><g><path d="m17.5 24h-17c-.276 0-.5-.224-.5-.5s.224-.5.5-.5h17c.276 0 .5.224.5.5s-.224.5-.5.5z"/></g></g><g><g><path d="m21.368 9.688c-.002 0-.003 0-.005 0-.402-.001-.779-.16-1.062-.445l-5.524-5.587c-.578-.585-.575-1.534.007-2.115l1.1-1.1c.584-.585 1.537-.585 2.121 0l5.556 5.555c.585.585.585 1.537 0 2.122l-1.132 1.132c-.284.282-.66.438-1.061.438zm-4.424-8.688c-.128 0-.256.048-.354.146l-1.1 1.1c-.194.194-.195.51-.003.705l5.524 5.587c.094.095.22.148.354.148.116-.029.26-.051.355-.147l1.132-1.131c.195-.195.195-.512 0-.708l-5.556-5.555c-.096-.096-.224-.145-.352-.145zm-1.806.893h.01z"/></g></g><g><g><path d="m5.854 12.586c-.215 0-.414-.14-.479-.356-.173-.575-.261-1.172-.261-1.774 0-.945.226-1.899.651-2.761.805-1.609 2.272-2.787 4.026-3.234l5.47-1.39c.27-.072.539.094.607.361s-.094.54-.361.607l-5.47 1.39c-1.472.376-2.702 1.364-3.376 2.711-.357.723-.547 1.524-.547 2.316 0 .504.073 1.004.218 1.487.08.264-.07.543-.335.623-.048.013-.096.02-.143.02z"/></g></g><g><g><path d="m11.234 19.492c-.804 0-1.53-.414-1.943-1.107-.527-.886-.357-2.046.413-2.82l3.531-3.537c-.42-.503-1.036-.778-1.712-.744-.713.037-1.351.43-1.705 1.051-.139.241-.446.322-.683.186-.239-.137-.323-.442-.187-.682.524-.917 1.467-1.498 2.522-1.554 1.051-.057 2.054.424 2.672 1.282l.156.217c.14.195.122.463-.044.637l-3.844 3.85c-.44.443-.551 1.117-.262 1.602.409.689 1.431.804 1.991.245l4.342-4.41 3.481-5.364c.151-.232.461-.297.691-.147.231.15.297.46.146.691l-3.509 5.407c-.018.029-.039.055-.063.08l-4.379 4.448c-.43.432-1.003.669-1.614.669z"/></g></g><g><g><path d="m15.517 24h-13.017c-.276 0-.5-.224-.5-.5v-11c0-.276.224-.5.5-.5h10.971c.276 0 .5.224.5.5s-.224.5-.5.5h-10.471v10h12.017v-7.598c0-.276.224-.5.5-.5s.5.224.5.5v8.098c0 .276-.224.5-.5.5z"/></g></g></svg>